<?xml version="1.0" encoding="UTF-8" standalone="no"?>
<svg
   xmlns:dc="http://purl.org/dc/elements/1.1/"
   xmlns:cc="http://creativecommons.org/ns#"
   xmlns:rdf="http://www.w3.org/1999/02/22-rdf-syntax-ns#"
   xmlns:svg="http://www.w3.org/2000/svg"
   xmlns="http://www.w3.org/2000/svg"
   xmlns:sodipodi="http://sodipodi.sourceforge.net/DTD/sodipodi-0.dtd"
   xmlns:inkscape="http://www.inkscape.org/namespaces/inkscape"
   viewBox="0 0 841.9 226.1"
   version="1.1"
   id="svg12"
   sodipodi:docname="logo.svg"
   inkscape:version="1.0.1 (3bc2e813f5, 2020-09-07)">
  <metadata
     id="metadata18">
    <rdf:RDF>
      <cc:Work
         rdf:about="">
        <dc:format>image/svg+xml</dc:format>
        <dc:type
           rdf:resource="http://purl.org/dc/dcmitype/StillImage" />
      </cc:Work>
    </rdf:RDF>
  </metadata>
  <defs
     id="defs16" />
  <sodipodi:namedview
     pagecolor="#ffffff"
     bordercolor="#666666"
     borderopacity="1"
     objecttolerance="10"
     gridtolerance="10"
     guidetolerance="10"
     inkscape:pageopacity="0"
     inkscape:pageshadow="2"
     inkscape:window-width="1920"
     inkscape:window-height="1017"
     id="namedview14"
     showgrid="false"
     inkscape:zoom="1.2685592"
     inkscape:cx="269.20304"
     inkscape:cy="113.05"
     inkscape:window-x="-8"
     inkscape:window-y="-8"
     inkscape:window-maximized="1"
     inkscape:current-layer="svg12" />
  <path
     fill-rule="evenodd"
     clip-rule="evenodd"
     d="M237.2 12.4l-1.2 2.2-1.6 2.9-.9 1.7-1.1 1.7-2.4 3.9-1.4 2.2-1.5 2.2-1.6 2.3-1.8 2.4-1.9 2.4-2.1 2.4-2.3 2.5-2.3 2.5-2.6 2.6-2.8 2.5-3 2.6-3.1 2.5-3.3 2.5-3.5 2.4-3.8 2.4-3.9 2.3-4.2 2.3-4.4 2.1-4.6 2.1-4.9 2-5.1 1.8-5.4 1.7-5.6 1.6-5.9 1.4 1.2.6 1.2.6 1.3.5 1.4.5 1.4.4 1.4.5 1.4.3 1.5.4 1.4.3 1.5.2 1.6.3 1.5.1 1.5.2h1.6l1.6.1h1.5l1.6-.1 1.6-.1 1.7-.2 1.6-.2 1.6-.2 1.6-.4 1.5-.4 1.6-.4 1.5-.6 1.6-.5 1.6-.7 1.5-.7 1.5-.8 1.4-.8 1.5-.9 1.4-1-.5.8-.5.9-.7 1-.7 1.1-.8 1.1-.9 1.2-1 1.3-1.1 1.3-1.1 1.4-1.2 1.4-1.3 1.5-1.4 1.4-1.4 1.5-1.6 1.5-1.6 1.4-1.6 1.5-1.8 1.5-1.8 1.4-2 1.4-2 1.4-2 1.4-2.1 1.3-2.3 1.2-2.3 1.2-2.3 1.1-2.5 1.1-2.5 1-2.5.8-2.7.8-2.7.6-2.8.6-2.8.4.4.3 1.5.8 1.1.4 1.2.5.7.3.8.2.8.3.9.1.9.2.9.2 1 .2 1.1.1 1.1.1 1.1.1h2.5l1.2-.1 1.3-.2 1.4-.1 1.3-.3 1.5-.3 1.5-.4 1.4-.4 1.6-.5-1.1 1.4-1 1.4-1.2 1.2-1.1 1.2-1.2 1.1-1.1 1.1-1.2.9-1.2 1-1.2.8-1.2.8-1.2.7-1.2.7-1.2.6-1.3.6-1.2.5-1.2.5-1.2.3-1.2.4-1.2.3-1.1.3-1.2.2-1.1.2-1.1.2-1.1.1-1.1.2h-1l-1 .1-1 .1h-1.8l-1.7-.1-1.9 2-1.7 2.1-1.6 2.1-1.5 2.3-1.3 2.3-1.2 2.4-1.1 2.4-.9 2.5-.9 2.6-.7 2.5-.7 2.7-.5 2.6-.5 2.7-.3 2.7-.3 2.7-.2 2.7-.1 2.7v5.4l.1 2.7.2 2.6.2 2.7.3 2.5.3 2.6.3 2.5.4 2.5.4 2.3.5 2.4.4 2.2.5 2.2.6 2.1.5 2-1.3-2.1-1.7-2.8-1-1.7-1.1-1.7-1.1-1.9-1.1-2.1-1.1-2.2-1.2-2.4-1.1-2.6-1.2-2.7-1.1-2.8-1.1-3-1-3.2-1-3.3-.9-3.5-.9-3.6-.7-3.8-.6-3.9-.5-4.1-.3-4.3-.2-4.4-.1-4.5.2-4.7.3-4.9.5-5 .8-5.2.9-5.4 1.2-5.5 1.5-5.6 1.7-5.9-1.1.8-1.1.8-1.1.9-1.2.9-1 .9-1.1 1.1-1 1-1 1.1-1.1 1.1-.9 1.2-.9 1.1-1 1.3-.8 1.2-.9 1.4-.8 1.3-.8 1.4-.8 1.5-.7 1.4-.6 1.4-.6 1.5-.6 1.5-.5 1.6-.5 1.6-.4 1.5-.6 3.3-.2 1.7-.1 1.6-.1 1.8v1.7l.1 1.7.1 1.7-.4-.8-.6-1-.5-1-.6-1.2-.5-1.3-.6-1.4-.7-1.5-.6-1.5-.6-1.7-.6-1.8-.6-1.8-.6-1.9-.5-2-.5-2.1-.5-2.1-.4-2.2-.4-2.3-.3-2.3-.3-2.4-.2-2.3-.1-2.5-.1-2.5V102l.1-2.6.2-2.6.4-2.6.4-2.6.5-2.7.6-2.7.8-2.7.9-2.7 1.1-2.7-.5.3-1.4.9-.9.7-1.1.8-.5.5-.6.6-.6.5-.6.7-.7.7-.6.7-.6.8-.7.9-.6.9-.6 1-.6 1-.6 1.1-.6 1.1-.5 1.2-.6 1.2-.5 1.4-.4 1.3-.4 1.5-.4 1.5-.3 1.6-.7-1.6-.6-1.6-.5-1.6-.5-1.6-.4-1.6-.3-1.5-.3-1.5-.2-1.5-.1-1.4-.1-1.5v-2.8l.1-1.4.1-1.3.2-1.3.2-1.3.3-1.2.2-1.2.3-1.2.4-1.2.4-1.1.3-1.1.9-2 .4-1 .4-.9.5-1 .5-.8.9-1.6.8-1.4-.8-2.7-.9-2.5-1.1-2.5-1.2-2.3-1.3-2.4-1.4-2.3-1.6-2.1-1.7-2.2-1.8-2-1.8-1.9-2-1.9-2-1.9-2.1-1.7-2.2-1.7-2.2-1.6-2.2-1.6-2.3-1.5-2.3-1.4-2.4-1.3-2.3-1.3-2.4-1.2-2.4-1.1-2.4-1.1-2.3-1.1-2.3-1-2.4-.9-2.2-.8-2.3-.8-2.2-.7-2.1-.7-2-.6-2-.6h2.4l3.3-.1h6.2l2.3.1 2.5.1 2.6.3 2.8.3 3 .4 3 .4 3.2.6 3.2.7 3.3.9 3.5 1 3.5 1.1 3.7 1.3 3.7 1.5 3.8 1.6 3.8 1.9 3.9 2 4 2.3 4 2.5 4 2.8 4.2 3 4.1 3.2 4.2 3.5 4.1 3.8 4.2 4.1 4.2 4.4-.1-1.3-.2-1.4-.2-1.4-.2-1.4-.3-1.4-.4-1.4-.3-1.5-.5-1.4-.5-1.4-.5-1.5-.6-1.4-.6-1.4-.6-1.4-.8-1.4-.7-1.4-.8-1.4-.8-1.3-.9-1.3-1-1.3-1-1.3-1-1.3-1-1.2-2.4-2.3-1.2-1.1-1.3-1-1.3-1-1.4-1-1.4-.9-1.5-.9-1.6-.8-1.6-.7h2l1.3.1 1.3.1 1.4.1 1.5.2 1.6.2 1.6.3 1.8.3 1.8.3 1.9.5 1.9.4 2 .6 2.1.5 2.1.7 2.1.7 2.2.8 2.2.8 2.1 1 2.2 1 2.2 1.1 2.2 1.2 2.2 1.3 2.2 1.4 2.1 1.5 2.2 1.6 2 1.7 2.1 1.8 2 1.9 1.9 2 1.9 2.1 1.8 2.3v-2.2l-.2-1.1-.2-1.4-.1-.7-.2-.8-.2-.8-.2-.9-.4-.9-.3-.9-.4-.9-.4-1-.5-1-.5-1-.6-1.1-.6-1-.7-1.1-.8-1.1-.8-1-.9-1.1-1-1.1-1-1.1-1.1-1.1-1.2-1 1.7.2 1.7.3 1.6.3 1.6.3 1.6.5 1.5.5 1.4.5 1.4.6 1.3.6 1.3.7 1.2.7 1.2.7 1.2.7 1 .8 1.1.8 1 .9 1 .8.9.8.8.9.9.9.8.8.7.9.7.9.7.8.6.9.6.9.6.8.4.8 1 1.6.8 1.5 2.9.6 2.8.4 2.9.2 2.8.1 2.9-.1 2.7-.1 2.8-.3 2.7-.5 2.7-.5 2.6-.7 2.6-.8 2.6-.8 2.6-1 2.5-1.1 2.4-1.1 2.4-1.2 2.3-1.2 2.4-1.4 2.2-1.3 2.3-1.4 2.1-1.5 2.1-1.5 2.1-1.5 2-1.6 1.9-1.5 1.9-1.6 1.8-1.5 3.5-3.1 1.5-1.5 1.6-1.5 1.5-1.4M238.7 112.1l-4.2 8-6.5 12.3-1.6 2.9-2 4.2-9.7 18.4h24.4l2-5 2-4.6.5-1.2 1.5-3.4 2-4.4 1.9-4 .2-.4 2-4.3 2.1-4 2-3.8h38.1l1.6 3.8 1.5 4.1 1.5 4.2.2.4 4.2 12.6 1.4 5 1.3 5h23.7l-3.7-10.4-.9-2.7-3.5-9.3-1.2-3.2-7.5-20.2-1.5-4.4-4.3-12.7-4.4-12.7-4.4-11.6-4.2-12.7h-26.9l-6.2 12.7-6.3 12.2-6.4 12.4-6.6 12.8-2.1 4.1m23.4-5.5l16.2-33.1 11.4 33.1h-27.6zM605.7 112.1l-2.2-6.1-4-10.9-4.4-12.3-4.3-12-4.3-12.8h-26.9l-6.2 12.5-6.2 12.3-6.2 12.1-6.5 12.4-2.7 5.2.2-.4-4.1 8-6.6 12.3-1.6 2.9-5 9.2-1.3 3-5.4 10.4h24.5l2-5 2-4.6.5-1.2 1.6-3.4 3.9-8.3.2-.4 2.1-4.3 2-4 2.1-3.8H587l1.5 3.8 1.5 4.1 1.5 4.2.2.4 1.3 3.9 1.5 4.3 1.1 3.4 1.7 6 1.3 5h23.7l-3.7-10.4-.9-2.7-3.4-9.3-1.2-3.2-4.7-12.4-2.7-7.9zm-50.2-5.4l16.2-33.1 11.4 33.1h-27.6zM803.5 135.4l2 5.8 1.9 5.8.3 1 1.4 5 1.3 5h23.8l-3.7-10.4-.9-2.7-3.4-9.3-1.2-3.2-7.4-20-2.1-5.6-4.2-11.4-9.1-25.7-4-11.7h-26.8l-6.1 12.3-6.6 13-5.8 11.4-6.1 11.8-2.9 5.6-4.2 8-6.5 12.3-1.6 2.9-6.3 12.2-5.3 10.4h24.4l6.1-13.8 3.9-8.5.2-.5 4.1-8.3 2.1-3.9h38.1l1.6 3.8 1.5 4.1 1.5 4.2v.4m-36.4-28.7l16.2-33.1 11.3 33-27.5.1zM726.6 99.5l-.2-2.9-.3-2.9-.4-2.4-.4-2.1-.6-2.4-.7-2.3-.8-2.2-.9-2.2-1-2-1.1-1.9-1.2-1.8-1.3-1.7-1.4-1.6-1.4-1.5-1.5-1.4-1.6-1.3-1.7-1.2-1.7-1.2-1.8-1-1.9-1-1.8-.8-1.9-.8-2-.6-2-.6-2.2-.5-2.2-.5-2.2-.3-4.6-.5-2.3-.1-2.4-.1h-48.4l-.1 16.5-.2 6.7-.2 7.2-.2 7.2-.3 7.2-.3 6.9-.1 2.5-.2 4.4-.7 12.7-.4 6.1-.3 5.1-.5 6.6-.2 3.4-.6 7.6h42.7l3.5-.7 3.4-.4 3.4-.5 3.1-.5 3.1-.6 2.9-.7 2.8-.9 2.8-.9 2.6-1.1 2.4-1.1 2.3-1.3 2.2-1.4 1.3-.9.8-.6 1.9-1.6 1.9-1.7 1.8-1.8 1.7-1.8 1.5-1.9 1.4-2 .2-.3 1.1-1.7 1.3-2.2 1.1-2.3 1-2.3.9-2.4.7-2.4.7-2.5.6-2.6.5-2.7.3-2.1.1-.7.3-3 .1-2v-3.5l-.2-3.2zm-21.1 5.7v1.2l-.2 1.7-.3 1.8-.2 1.7-.1.5-.6 3-.4 1.7-.6 1.6-.6 1.7-.7 1.6-.7 1.6-.9 1.5-.9 1.5-1 1.4-1.1 1.4-1.1 1.3-1.3 1.3-1.4 1.2-1.4 1.1-1.5 1.1-.4.3-1.1.7-1.8.9-1.8.9-1.9.7-2 .6-2.1.6-2.3.5-2.4.3-2.4.3-2.1.1-2.5.1h-16.6l.2-5.5 1-23.1 1.6-38.7H681l1.8.3 1.7.3 1.6.2 1.6.3 1.5.4 1.4.6 1.3.6 1.3.7 1.2.7 1.2.8 1 .8 1 .9.9.9.9 1.1.8 1 .7 1 .7 1.1.6 1.1.6 1.1.5 1.2.5 1.2.4 1.3.3 1.3.3 1.3.3 1.3.2 1.3.2 1.3.2 1.4.1 1.3.1 1.8-.4 2.8zM446.8 112.1l-.1-.7v-4.1l.2-2 .2-2.1.3-1.9.5-1.9.5-2 .6-1.8.6-1.8.8-1.6.8-1.7 1-1.6.9-1.4 1.1-1.5 1.1-1.4 1.2-1.3 1.3-1.2 1.4-1.2 1.4-1.2 1.4-.9 1.6-1 1.6-.9 1.5-.9 1.7-.7 1.8-.7 1.7-.6 1.9-.5 1.9-.5 2-.3 2-.3 2-.2 2-.2h3.6l1.5.1 1.5.1 1.5.1 1.5.2 1.5.2 1.4.3 1.5.2 2.9.7 2.9.6 2.9.8 2.8.8-.9-17-3.1-.6-3.2-.6-3.2-.4-3.2-.4-3.2-.4-3.2-.2-3.1-.2h-6.4l-3.1.2-3.1.2-2.9.4-2.9.6-2.8.6-2.8.7-2.7.8-2.6.9-2.5 1.1-2.5 1.1-2.4 1.2-2.3 1.5L445 67l-2.1 1.6-2.1 1.6L439 72l-1.8 1.9-1.7 2-1.6 2-1.4 2.1-1.4 2.3-1.2 2.4-1.2 2.5-1 2.6-.9 2.7-.7 2.8-.7 2.9-.4 3-.4 3-.2 3.2-.1 3.2v1.5l.1 1.5.2 2.9.4 2.8.4 2.6.7 2.7.7 2.4.9 2.4 1 2.4 1.1 2.1.8 1.5.4.6 1.3 2 1.5 2 1.5 1.8 1.6 1.7 1.7 1.6 1.8 1.6.4.3 1.5 1.2 1.9 1.3 2.1 1.3 2.2 1.2 2.1 1.1 2.3.9 2.3.9 2.4.8 2.5.7 2.5.6 2.5.5 2.5.4 2.6.3 2.7.3 2.6.1 2.8.1 3.4-.1 3.4-.1 3.5-.3 3.3-.3 3.3-.4 3.3-.5 3.2-.5 3.2-.5 1.4-9 1.3-8.3-3.2.8-3.1.8-3.2.8-3.2.6-1.7.3-1.6.2-1.6.2-1.6.2-1.7.2-1.6.1H479.9l-1.9-.1-1.9-.2-1.9-.2-1.7-.3-1.7-.4-1.8-.5-1.6-.5-1.5-.6-1.5-.6-1.5-.7-1.4-.8-1.4-.8-1.4-.9-1-.9-.1-.1-1.2-1-1.2-1.1-1-1.1-1-1.3-.9-1.3-.9-1.4-.8-1.3-.7-1.5-.6-1.5-.7-1.6-.5-1.6-.4-1.7-.4-1.8-.2-1.8-.2-2M389.3 112.1l-.3-.5 1.5-.2 1.5-.4 1.4-.4 1.4-.4 1.3-.4 1.3-.5 1.3-.5 1.2-.6 1.3-.5 1.2-.7 1.1-.5 1.1-.8 1.1-.7 1-.8 1.9-1.7.9-.9.8-.9.8-1 .8-1 .7-1.2.6-1 .6-1.2.5-1.2.4-1.3.4-1.3.4-1.4.3-1.3.2-1.5.2-1.5.1-1.5V80.9l-.2-1.6-.2-1.5-.3-1.5-.3-1.4-.5-1.4-.5-1.3-.6-1.2-.6-1.1-.7-1.2-.8-1-.9-.9-.9-1-.9-.9-1.1-.8-1.1-.7-1.1-.7-1.2-.6-1.2-.6-1.3-.5-1.3-.6-2.7-.8-2.9-.6-1.4-.3-1.6-.2-1.6-.2-1.5-.1-1.5-.1H339.6l-.1 12.4-.4 18.5-.2 6.2-.2 6.3-.2 6-.2 4.6-.4 7.8-.4 6.2-.3 6.2-.2 3.1-.3 3-.5 6.2-.2 2.4-.3 3.8-.6 6.1h22.4l.2-7.3V147l.2-7.7.1-3.9.3-8.1.3-13 .1-2.2.3-10.5.4-11.9.3-9.7.2-6.6 2-.2 2-.2 1.9-.1 2-.1 2-.1h1.9l2-.1h3.8l1.7.1 1.7.1 1.6.2 1.7.2 1.6.4.8.3.7.2.7.3.7.3.7.4.7.4.6.4.6.4.6.5.5.6.5.6.5.6.4.7.3.7.3.7.3.9.2.9.1.9.2 1v2.2l-.2 1.1-.1 1.1-.2 1.1-.3.9-.3 1-.4.9-.4.9-.4.7-.5.8-.6.8-.7.7-.6.6-.7.7-.7.6-.7.6-.8.5-.8.4-.8.5-.9.4-.9.3-.9.4-.9.3-1 .2-1 .3-1 .2-1 .2-1 .1-1 .1-1 .1h-1.1l-1.1.1-1.1-.1H371l-1.1-.1-1.1-.1-1.1-.2-1.2-.1-1.1-.2-1.1-.1 3.3 6.7 1.6 3.1 1.8 3.6 3.3 6.8 3.3 6.8 1.7 3.4 1.3 2.7.3.6 1.5 3.5 1.5 3.4 1.6 3.5.2.6 1.1 2.9 1.5 3.5 1.3 3.5h23.9l-5.3-9.9-6.3-11.6"
     id="path10"
     style="fill:#09d3ac;fill-opacity:1" />
</svg>
